<svg xmlns="http://www.w3.org/2000/svg" xmlns:xlink="http://www.w3.org/1999/xlink" width="127" height="127" viewBox="0 0 127 127"><defs><clipPath id="a"><rect width="127" height="127" fill="none"/></clipPath></defs><g clip-path="url(#a)"><path d="M50.57,22.552a3.659,3.659,0,0,1-1.964,4.771,3.622,3.622,0,0,1-4.742-1.975,3.664,3.664,0,0,1,1.964-4.772,3.623,3.623,0,0,1,4.742,1.976" fill="#f15a24"/><path d="M29.875,24.5a3.667,3.667,0,0,1,0,5.162,3.617,3.617,0,0,1-5.134,0,3.667,3.667,0,0,1,0-5.162,3.617,3.617,0,0,1,5.134,0" fill="#f15a24"/><path d="M27.547,48.517a3.633,3.633,0,1,1-1.967-4.771,3.625,3.625,0,0,1,1.967,4.771" fill="#f15a24"/><path d="M12.316,59.847A3.653,3.653,0,1,1,8.688,63.5a3.639,3.639,0,0,1,3.628-3.651" fill="#f15a24"/><path d="M27.547,78.487a3.658,3.658,0,0,1-1.967,4.767,3.617,3.617,0,0,1-4.739-1.975,3.633,3.633,0,1,1,6.706-2.8Z" fill="#f15a24"/><path d="M29.875,97.334a3.667,3.667,0,0,1,0,5.162,3.617,3.617,0,0,1-5.134,0,3.667,3.667,0,0,1,0-5.162,3.617,3.617,0,0,1,5.134,0" fill="#f15a24"/><path d="M48.607,99.677a3.66,3.66,0,0,1,1.964,4.771,3.622,3.622,0,0,1-4.742,1.976,3.664,3.664,0,0,1-1.964-4.771,3.622,3.622,0,0,1,4.742-1.976" fill="#f15a24"/><path d="M63.5,111.348A3.651,3.651,0,1,1,59.872,115a3.642,3.642,0,0,1,3.628-3.651" fill="#f15a24"/><path d="M83.135,101.653a3.663,3.663,0,0,1-1.964,4.771,3.623,3.623,0,0,1-4.742-1.975,3.661,3.661,0,0,1,1.964-4.772,3.621,3.621,0,0,1,4.742,1.976" fill="#f15a24"/><path d="M102.258,97.334a3.667,3.667,0,0,1,0,5.162,3.617,3.617,0,0,1-5.134,0,3.667,3.667,0,0,1,0-5.162,3.617,3.617,0,0,1,5.134,0" fill="#f15a24"/><path d="M99.453,78.484a3.632,3.632,0,1,1,1.967,4.771,3.625,3.625,0,0,1-1.967-4.771" fill="#f15a24"/><path d="M114.684,59.847a3.653,3.653,0,1,1-3.628,3.651,3.642,3.642,0,0,1,3.628-3.651" fill="#f15a24"/><path d="M99.453,48.513a3.654,3.654,0,0,1,1.967-4.767,3.616,3.616,0,0,1,4.738,1.975,3.632,3.632,0,1,1-6.7,2.8Z" fill="#f15a24"/><path d="M102.258,24.5a3.667,3.667,0,0,1,0,5.162,3.617,3.617,0,0,1-5.134,0,3.667,3.667,0,0,1,0-5.162,3.617,3.617,0,0,1,5.134,0" fill="#f15a24"/><path d="M81.172,20.576a3.664,3.664,0,0,1,1.964,4.771,3.622,3.622,0,0,1-4.742,1.976,3.66,3.66,0,0,1-1.964-4.771,3.622,3.622,0,0,1,4.742-1.976" fill="#f15a24"/><path d="M63.5,8.351A3.651,3.651,0,1,1,59.872,12,3.639,3.639,0,0,1,63.5,8.351" fill="#f15a24"/><path d="M59.166,45.651l.159-7.45h8.351l.159,7.45,5.142,2.144,5.351-5.154,5.906,5.942-5.126,5.381,2.13,5.173,7.408.16V67.7l-7.408.16-2.13,5.169,5.126,5.385L78.327,84.36l-5.351-5.154-5.142,2.14L67.675,88.8H59.324l-.159-7.454-5.142-2.14L48.673,84.36l-5.906-5.942,5.126-5.385-2.13-5.169-7.4-.16V59.3l7.4-.16,2.13-5.173-5.126-5.381,5.906-5.942,5.351,5.154Z" fill="none" stroke="#a4c695" stroke-linejoin="round" stroke-width="2"/><line y2="17.355" transform="translate(63.5 15.653)" fill="none" stroke="#a4c695" stroke-linejoin="round" stroke-width="2"/><path d="M67.128,12A3.629,3.629,0,1,1,63.5,8.351,3.642,3.642,0,0,1,67.128,12Z" fill="none" stroke="#a4c695" stroke-linejoin="round" stroke-width="2"/><line x1="3.298" y1="8.008" transform="translate(48.607 27.323)" fill="none" stroke="#a4c695" stroke-linejoin="round" stroke-width="2"/><path d="M50.57,22.552a3.659,3.659,0,0,1-1.964,4.771,3.622,3.622,0,0,1-4.742-1.975,3.664,3.664,0,0,1,1.964-4.772A3.623,3.623,0,0,1,50.57,22.552Z" fill="none" stroke="#a4c695" stroke-linejoin="round" stroke-width="2"/><path d="M35.506,51.831l-7.959-3.315h0" fill="none" stroke="#a4c695" stroke-linejoin="round" stroke-width="2"/><path d="M25.58,43.745a3.648,3.648,0,1,1-4.738,1.976A3.615,3.615,0,0,1,25.58,43.745Z" fill="none" stroke="#a4c695" stroke-linejoin="round" stroke-width="2"/><line x1="0.004" transform="translate(27.543 78.487)" fill="none" stroke="#a4c695" stroke-linejoin="round" stroke-width="2"/><line x1="7.959" y2="3.315" transform="translate(27.547 75.169)" fill="none" stroke="#a4c695" stroke-linejoin="round" stroke-width="2"/><path d="M27.547,78.487a3.658,3.658,0,0,1-1.967,4.767,3.617,3.617,0,0,1-4.739-1.975,3.633,3.633,0,1,1,6.706-2.8Z" fill="none" stroke="#a4c695" stroke-linejoin="round" stroke-width="2"/><line x1="3.298" y2="8.008" transform="translate(48.607 91.669)" fill="none" stroke="#a4c695" stroke-linejoin="round" stroke-width="2"/><path d="M43.865,101.653a3.621,3.621,0,0,1,4.742-1.976,3.661,3.661,0,0,1,1.964,4.772,3.623,3.623,0,0,1-4.742,1.975A3.664,3.664,0,0,1,43.865,101.653Z" fill="none" stroke="#a4c695" stroke-linejoin="round" stroke-width="2"/><line x2="3.298" y2="8.008" transform="translate(75.095 91.669)" fill="none" stroke="#a4c695" stroke-linejoin="round" stroke-width="2"/><path d="M76.43,104.448a3.66,3.66,0,0,1,1.964-4.771,3.622,3.622,0,0,1,4.742,1.975,3.664,3.664,0,0,1-1.964,4.772A3.623,3.623,0,0,1,76.43,104.448Z" fill="none" stroke="#a4c695" stroke-linejoin="round" stroke-width="2"/><path d="M91.494,75.169l7.959,3.315h0" fill="none" stroke="#a4c695" stroke-linejoin="round" stroke-width="2"/><path d="M101.42,83.255a3.661,3.661,0,0,1-1.967-4.771,3.632,3.632,0,1,1,1.967,4.771Z" fill="none" stroke="#a4c695" stroke-linejoin="round" stroke-width="2"/><line x2="0.004" transform="translate(99.453 48.513)" fill="none" stroke="#a4c695" stroke-linejoin="round" stroke-width="2"/><line y1="3.315" x2="7.959" transform="translate(91.494 48.517)" fill="none" stroke="#a4c695" stroke-linejoin="round" stroke-width="2"/><path d="M99.453,48.513a3.654,3.654,0,0,1,1.967-4.767,3.616,3.616,0,0,1,4.738,1.975,3.632,3.632,0,1,1-6.7,2.8Z" fill="none" stroke="#a4c695" stroke-linejoin="round" stroke-width="2"/><line y1="8.008" x2="3.298" transform="translate(75.095 27.323)" fill="none" stroke="#a4c695" stroke-linejoin="round" stroke-width="2"/><path d="M83.135,25.347a3.622,3.622,0,0,1-4.742,1.976,3.661,3.661,0,0,1-1.964-4.772,3.623,3.623,0,0,1,4.742-1.975A3.663,3.663,0,0,1,83.135,25.347Z" fill="none" stroke="#a4c695" stroke-linejoin="round" stroke-width="2"/><line x2="12.196" y2="12.276" transform="translate(29.875 29.666)" fill="none" stroke="#a4c695" stroke-linejoin="round" stroke-width="2"/><path d="M29.875,24.5a3.667,3.667,0,0,1,0,5.162,3.617,3.617,0,0,1-5.134,0,3.667,3.667,0,0,1,0-5.162A3.617,3.617,0,0,1,29.875,24.5Z" fill="none" stroke="#a4c695" stroke-linejoin="round" stroke-width="2"/><line x2="17.253" transform="translate(15.945 63.498)" fill="none" stroke="#a4c695" stroke-linejoin="round" stroke-width="2"/><path d="M12.316,59.847A3.653,3.653,0,1,1,8.688,63.5,3.639,3.639,0,0,1,12.316,59.847Z" fill="none" stroke="#a4c695" stroke-linejoin="round" stroke-width="2"/><line y1="12.276" x2="12.196" transform="translate(29.875 85.058)" fill="none" stroke="#a4c695" stroke-linejoin="round" stroke-width="2"/><path d="M24.742,97.334a3.617,3.617,0,0,1,5.134,0,3.667,3.667,0,0,1,0,5.162,3.617,3.617,0,0,1-5.134,0A3.667,3.667,0,0,1,24.742,97.334Z" fill="none" stroke="#a4c695" stroke-linejoin="round" stroke-width="2"/><line y1="17.359" transform="translate(63.5 93.989)" fill="none" stroke="#a4c695" stroke-linejoin="round" stroke-width="2"/><path d="M59.872,115a3.629,3.629,0,1,1,3.628,3.651A3.642,3.642,0,0,1,59.872,115Z" fill="none" stroke="#a4c695" stroke-linejoin="round" stroke-width="2"/><line x1="12.196" y1="12.276" transform="translate(84.929 85.058)" fill="none" stroke="#a4c695" stroke-linejoin="round" stroke-width="2"/><path d="M97.125,102.5a3.667,3.667,0,0,1,0-5.162,3.617,3.617,0,0,1,5.134,0,3.667,3.667,0,0,1,0,5.162A3.617,3.617,0,0,1,97.125,102.5Z" fill="none" stroke="#a4c695" stroke-linejoin="round" stroke-width="2"/><line x1="17.253" transform="translate(93.803 63.498)" fill="none" stroke="#a4c695" stroke-linejoin="round" stroke-width="2"/><path d="M114.684,67.153a3.653,3.653,0,1,1,3.628-3.655A3.64,3.64,0,0,1,114.684,67.153Z" fill="none" stroke="#a4c695" stroke-linejoin="round" stroke-width="2"/><line x1="12.196" y2="12.276" transform="translate(84.929 29.666)" fill="none" stroke="#a4c695" stroke-linejoin="round" stroke-width="2"/><path d="M102.258,29.666a3.617,3.617,0,0,1-5.134,0,3.667,3.667,0,0,1,0-5.162,3.617,3.617,0,0,1,5.134,0A3.667,3.667,0,0,1,102.258,29.666Z" fill="none" stroke="#a4c695" stroke-linejoin="round" stroke-width="2"/><path d="M52.1,63.986l8.426,8.426L75.274,57.667" fill="none" stroke="#a4c695" stroke-linecap="round" stroke-linejoin="round" stroke-width="2"/></g></svg>