<svg xmlns="http://www.w3.org/2000/svg" xmlns:xlink="http://www.w3.org/1999/xlink" width="127" height="127" viewBox="0 0 127 127"><defs><clipPath id="a"><rect width="127" height="127" fill="none"/></clipPath></defs><g clip-path="url(#a)"><path d="M49.469,38.027a3.83,3.83,0,1,1-3.83-3.83,3.83,3.83,0,0,1,3.83,3.83" fill="#f15a24"/><path d="M94.422,49.429a3.83,3.83,0,1,1-3.831-3.83,3.831,3.831,0,0,1,3.831,3.83" fill="#f15a24"/><path d="M49.613,88.62a3.83,3.83,0,1,1-3.83-3.83,3.83,3.83,0,0,1,3.83,3.83" fill="#f15a24"/><path d="M67.868,64.5a2.037,2.037,0,0,0-1.026-1.841V60.391c0-1.03-1.568-2.053-3.078-2.053s-3.079,1.023-3.079,2.053v2.263A2.032,2.032,0,0,0,59.66,64.5c-.009.083,0,3.078,0,3.078a4.1,4.1,0,1,0,8.208,0s.007-2.995,0-3.078" fill="#f15a24"/><path d="M43.3,86.929a30.934,30.934,0,0,1-.384-46.521" fill="none" stroke="#a4c695" stroke-linejoin="round" stroke-width="2"/><path d="M92.417,52.493A30.945,30.945,0,0,1,48.6,90.613" fill="none" stroke="#a4c695" stroke-linejoin="round" stroke-width="2"/><path d="M49.344,35.99A30.956,30.956,0,0,1,89.15,46.206" fill="none" stroke="#a4c695" stroke-linejoin="round" stroke-width="2"/><circle cx="20.494" cy="20.494" r="20.494" transform="translate(43.006 43.006)" fill="none" stroke="#a4c695" stroke-linejoin="round" stroke-width="2"/><path d="M110.133,63.5A46.633,46.633,0,1,1,63.5,16.867,46.633,46.633,0,0,1,110.133,63.5Z" fill="none" stroke="#a4c695" stroke-linejoin="round" stroke-width="2"/><line x2="22.979" transform="translate(8.351 63.5)" fill="none" stroke="#a4c695" stroke-linejoin="round" stroke-width="2"/><line x2="22.979" transform="translate(95.67 63.5)" fill="none" stroke="#a4c695" stroke-linejoin="round" stroke-width="2"/><line y2="22.979" transform="translate(63.5 8.351)" fill="none" stroke="#a4c695" stroke-linejoin="round" stroke-width="2"/><line y2="22.979" transform="translate(63.5 95.67)" fill="none" stroke="#a4c695" stroke-linejoin="round" stroke-width="2"/><circle cx="3.83" cy="3.83" r="3.83" transform="translate(41.809 34.197)" fill="none" stroke="#a4c695" stroke-linejoin="round" stroke-width="2"/><circle cx="3.83" cy="3.83" r="3.83" transform="translate(86.761 45.599)" fill="none" stroke="#a4c695" stroke-linejoin="round" stroke-width="2"/><circle cx="3.83" cy="3.83" r="3.83" transform="translate(41.953 84.79)" fill="none" stroke="#a4c695" stroke-linejoin="round" stroke-width="2"/><path d="M61.712,62.443c-1.273,0-1.929.658-2.052,2.052-.008.084,0,3.079,0,3.079a4.1,4.1,0,0,0,8.209,0s.007-2.995,0-3.079c-.123-1.394-.779-2.052-2.052-2.052" fill="none" stroke="#a4c695" stroke-linejoin="round" stroke-width="2"/><path d="M66.842,62.463V60.391c0-1.03-1.568-2.052-3.078-2.052s-3.079,1.022-3.079,2.052v2.072" fill="none" stroke="#a4c695" stroke-linejoin="round" stroke-width="2"/><path d="M59.659,63.982l-2.052-3.591-2.053-1.027-1.026-3.078" fill="none" stroke="#a4c695" stroke-linejoin="round" stroke-width="2"/><path d="M59.659,68.6l-2.052,3.078v2.053l-2.053,2.052" fill="none" stroke="#a4c695" stroke-linejoin="round" stroke-width="2"/><path d="M59.659,65.521H56.581L55.554,68.6,53.5,69.626" fill="none" stroke="#a4c695" stroke-linejoin="round" stroke-width="2"/><path d="M67.868,63.982l2.052-3.591,2.053-1.027L73,56.286" fill="none" stroke="#a4c695" stroke-linejoin="round" stroke-width="2"/><path d="M67.868,68.6l2.052,3.078v2.053l2.053,2.052" fill="none" stroke="#a4c695" stroke-linejoin="round" stroke-width="2"/><path d="M67.868,65.521h3.078L71.973,68.6l2.052,1.027" fill="none" stroke="#a4c695" stroke-linejoin="round" stroke-width="2"/><path d="M65.816,58.338l1.026-5.131,2.052-2.052" fill="none" stroke="#a4c695" stroke-linejoin="round" stroke-width="2"/><path d="M61.712,58.338l-1.026-5.131-2.052-2.052" fill="none" stroke="#a4c695" stroke-linejoin="round" stroke-width="2"/></g></svg>