<svg xmlns="http://www.w3.org/2000/svg" xmlns:xlink="http://www.w3.org/1999/xlink" width="127" height="127" viewBox="0 0 127 127"><defs><clipPath id="a"><rect width="127" height="127" fill="none"/></clipPath></defs><g clip-path="url(#a)"><path d="M97.028,27.006a48.842,48.842,0,1,1-15.687-9.911" fill="none" stroke="#a4c695" stroke-linejoin="round" stroke-width="2"/><path d="M34.54,83.567a35.655,35.655,0,1,0-6.692-20.8v4.456" fill="none" stroke="#a4c695" stroke-linejoin="round" stroke-width="2"/><path d="M96.924,36.03V27.117h8.913" fill="none" stroke="#a4c695" stroke-linejoin="round" stroke-width="2"/><path d="M34.533,60.541l-6.685,6.685-6.684-6.685" fill="none" stroke="#a4c695" stroke-linejoin="round" stroke-width="2"/><path d="M85.782,62.769A22.282,22.282,0,1,1,63.5,40.487,22.282,22.282,0,0,1,85.782,62.769Z" fill="none" stroke="#a4c695" stroke-linejoin="round" stroke-width="2"/><path d="M47.415,33.082a3.83,3.83,0,1,1-3.83-3.83,3.83,3.83,0,0,1,3.83,3.83" fill="#f15a24"/><circle cx="3.83" cy="3.83" r="3.83" transform="translate(39.755 29.252)" fill="none" stroke="#a4c695" stroke-linejoin="round" stroke-width="2"/><path d="M103.074,64.486a3.83,3.83,0,1,1-3.83-3.829,3.831,3.831,0,0,1,3.83,3.829" fill="#f15a24"/><circle cx="3.83" cy="3.83" r="3.83" transform="translate(95.414 60.656)" fill="none" stroke="#a4c695" stroke-linejoin="round" stroke-width="2"/><path d="M22.394,81.848a3.83,3.83,0,1,1-3.83-3.83,3.83,3.83,0,0,1,3.83,3.83" fill="#f15a24"/><circle cx="3.83" cy="3.83" r="3.83" transform="translate(14.734 78.018)" fill="none" stroke="#a4c695" stroke-linejoin="round" stroke-width="2"/><path d="M81.628,109.423a3.83,3.83,0,1,1-3.83-3.83,3.83,3.83,0,0,1,3.83,3.83" fill="#f15a24"/><circle cx="3.83" cy="3.83" r="3.83" transform="translate(73.968 105.592)" fill="none" stroke="#a4c695" stroke-linejoin="round" stroke-width="2"/><path d="M50.734,94.359a3.83,3.83,0,1,1-3.83-3.83,3.83,3.83,0,0,1,3.83,3.83" fill="#f15a24"/><circle cx="3.83" cy="3.83" r="3.83" transform="translate(43.074 90.529)" fill="none" stroke="#a4c695" stroke-linejoin="round" stroke-width="2"/><line y2="3.149" transform="translate(63.5 43.678)" fill="none" stroke="#a4c695" stroke-linejoin="round" stroke-width="2"/><line x2="3.149" transform="translate(44.84 62.604)" fill="none" stroke="#a4c695" stroke-linejoin="round" stroke-width="2"/><line x2="3.149" transform="translate(79.117 62.604)" fill="none" stroke="#a4c695" stroke-linejoin="round" stroke-width="2"/><line x2="1.574" y2="2.727" transform="translate(54.053 46.209)" fill="none" stroke="#a4c695" stroke-linejoin="round" stroke-width="2"/><line x2="2.727" y2="1.574" transform="translate(47.138 53.125)" fill="none" stroke="#a4c695" stroke-linejoin="round" stroke-width="2"/><line y1="1.574" x2="2.727" transform="translate(47.138 70.444)" fill="none" stroke="#a4c695" stroke-linejoin="round" stroke-width="2"/><line y1="2.727" x2="1.574" transform="translate(54.053 76.207)" fill="none" stroke="#a4c695" stroke-linejoin="round" stroke-width="2"/><line y1="3.149" transform="translate(63.5 78.316)" fill="none" stroke="#a4c695" stroke-linejoin="round" stroke-width="2"/><line x1="1.574" y1="2.727" transform="translate(71.373 76.207)" fill="none" stroke="#a4c695" stroke-linejoin="round" stroke-width="2"/><line x1="2.727" y1="1.574" transform="translate(77.135 70.444)" fill="none" stroke="#a4c695" stroke-linejoin="round" stroke-width="2"/><line x1="2.727" y2="1.574" transform="translate(77.135 53.125)" fill="none" stroke="#a4c695" stroke-linejoin="round" stroke-width="2"/><line x1="1.574" y2="2.727" transform="translate(71.373 46.209)" fill="none" stroke="#a4c695" stroke-linejoin="round" stroke-width="2"/><path d="M57.2,57.848l6.3,6.3L72.947,54.7" fill="none" stroke="#a4c695" stroke-linejoin="round" stroke-width="2"/></g></svg>